<?xml version="1.0" encoding="utf-8"?>
<!-- Generator: Adobe Illustrator 18.1.1, SVG Export Plug-In . SVG Version: 6.00 Build 0)  -->
<!DOCTYPE svg PUBLIC "-//W3C//DTD SVG 1.1//EN" "http://www.w3.org/Graphics/SVG/1.1/DTD/svg11.dtd">
<svg version="1.1" id="Layer_1" xmlns="http://www.w3.org/2000/svg" xmlns:xlink="http://www.w3.org/1999/xlink" x="0px" y="0px"
	 viewBox="0 0 60 30" enable-background="new 0 0 60 30" xml:space="preserve">
<g>
	<g>
		<g>
			
				<radialGradient id="SVGID_2_" cx="8.3391" cy="36.9164" r="71.4497" gradientTransform="matrix(1 0 0 -1 0 28.11)" gradientUnits="userSpaceOnUse">
				<stop  offset="0" style="stop-color:#00B1E7"/>
				<stop  offset="0.427" style="stop-color:#0098CD"/>
				<stop  offset="0.5244" style="stop-color:#008DBE"/>
				<stop  offset="0.8403" style="stop-color:#006C91"/>
				<stop  offset="1" style="stop-color:#005F80"/>
			</radialGradient>
			<path id="SVGID_1_" fill="url(#SVGID_2_)" d="M30.9,12.3v-1.4c0,0-0.1-1.1-1.2-1.1h-1.8v2.5H26V5.1h4.5c0,0,2.3-0.3,2.4,2.1
				c0,1.3-1,1.7-1,1.7s0.9,0.4,0.8,1.6v1.8L30.9,12.3 M27.9,8.1h1.9c0.6,0,1-0.3,1-0.7c0-0.4-0.5-0.7-1-0.7h-1.9V8.1L27.9,8.1"/>
		</g>
	</g>
	<g>
		<g>
			
				<radialGradient id="SVGID_3_" cx="8.3391" cy="36.9164" r="71.4497" gradientTransform="matrix(1 0 0 -1 0 28.11)" gradientUnits="userSpaceOnUse">
				<stop  offset="0" style="stop-color:#00B1E7"/>
				<stop  offset="0.427" style="stop-color:#0098CD"/>
				<stop  offset="0.5244" style="stop-color:#008DBE"/>
				<stop  offset="0.8403" style="stop-color:#006C91"/>
				<stop  offset="1" style="stop-color:#005F80"/>
			</radialGradient>
			<path id="SVGID_4_" fill="url(#SVGID_3_)" d="M52.6,12.3l-2.9-4.8v4.8h-1.6h-0.3h-1.7l-0.7-1.5h-3.4l-0.6,1.5h-1.7h-0.3h-0.9
				c0,0-2.5-0.4-2.5-3.4c0-4,2.8-3.9,2.9-3.9l2.3,0.1v1.6l-1.9,0c0,0-1.2,0-1.4,1.6c0,0.2,0,0.3,0,0.5c0,2.4,2.2,1.6,2.2,1.7
				l2.3-5.4h2.6l2.8,6.6V5.1h2.6l2.9,4.8V5.1h1.9v7.3H52.6 M42.9,9h1.8l-0.9-2.2L42.9,9L42.9,9"/>
		</g>
	</g>
	<g>
		<g>
			
				<radialGradient id="SVGID_5_" cx="8.3391" cy="36.9164" r="71.4497" gradientTransform="matrix(1 0 0 -1 0 28.11)" gradientUnits="userSpaceOnUse">
				<stop  offset="0" style="stop-color:#00B1E7"/>
				<stop  offset="0.427" style="stop-color:#0098CD"/>
				<stop  offset="0.5244" style="stop-color:#008DBE"/>
				<stop  offset="0.8403" style="stop-color:#006C91"/>
				<stop  offset="1" style="stop-color:#005F80"/>
			</radialGradient>
			<path id="SVGID_7_" fill="url(#SVGID_5_)" d="M16.4,12.3v-5l-2.3,5h-1.5l-2.3-5v5H8.7H8.4H6.7L6,10.8H2.7L2,12.3H0l3.1-7.3h2.6
				l2.8,6.7V5.1h2.9l2,4.5l2-4.5h2.9v7.3H16.4 M3.5,9h1.8L4.3,6.8L3.5,9L3.5,9"/>
		</g>
	</g>
	<g>
		<g>
			
				<radialGradient id="SVGID_6_" cx="8.3391" cy="36.9164" r="71.4497" gradientTransform="matrix(1 0 0 -1 0 28.11)" gradientUnits="userSpaceOnUse">
				<stop  offset="0" style="stop-color:#00B1E7"/>
				<stop  offset="0.427" style="stop-color:#0098CD"/>
				<stop  offset="0.5244" style="stop-color:#008DBE"/>
				<stop  offset="0.8403" style="stop-color:#006C91"/>
				<stop  offset="1" style="stop-color:#005F80"/>
			</radialGradient>
			<polyline id="SVGID_10_" fill="url(#SVGID_6_)" points="19.4,12.3 19.4,5 25,5 25,6.8 21.2,6.8 21.2,7.9 25,7.9 25,9.5 21.2,9.5 
				21.2,10.9 25,10.9 25,12.3 19.4,12.3 			"/>
		</g>
	</g>
	<g>
		<g>
			
				<radialGradient id="SVGID_8_" cx="8.3391" cy="36.9164" r="71.4497" gradientTransform="matrix(1 0 0 -1 0 28.11)" gradientUnits="userSpaceOnUse">
				<stop  offset="0" style="stop-color:#00B1E7"/>
				<stop  offset="0.427" style="stop-color:#0098CD"/>
				<stop  offset="0.5244" style="stop-color:#008DBE"/>
				<stop  offset="0.8403" style="stop-color:#006C91"/>
				<stop  offset="1" style="stop-color:#005F80"/>
			</radialGradient>
			<polyline id="SVGID_13_" fill="url(#SVGID_8_)" points="33.6,12.3 33.6,5 35.4,5 35.4,12.3 33.6,12.3 			"/>
		</g>
	</g>
</g>
<g>
	<g>
		<g>
			
				<radialGradient id="SVGID_9_" cx="8.3391" cy="36.9164" r="71.4497" gradientTransform="matrix(1 0 0 -1 0 28.11)" gradientUnits="userSpaceOnUse">
				<stop  offset="0" style="stop-color:#00B1E7"/>
				<stop  offset="0.427" style="stop-color:#0098CD"/>
				<stop  offset="0.5244" style="stop-color:#008DBE"/>
				<stop  offset="0.8403" style="stop-color:#006C91"/>
				<stop  offset="1" style="stop-color:#005F80"/>
			</radialGradient>
			<path id="SVGID_16_" fill="url(#SVGID_9_)" d="M38,24.6v-1.4c0,0-0.1-1.1-1.2-1.1H35v2.5h-1.8v-7.3h4.5c0,0,2.3-0.3,2.4,2.1
				c0,1.3-1,1.7-1,1.7s0.9,0.4,0.8,1.6v1.8H38 M35,20.4h1.9c0.5,0,1-0.3,1-0.7s-0.5-0.7-1-0.7H35V20.4L35,20.4"/>
		</g>
	</g>
	<g>
		<g>
			
				<radialGradient id="SVGID_11_" cx="8.3391" cy="36.9164" r="71.4497" gradientTransform="matrix(1 0 0 -1 0 28.11)" gradientUnits="userSpaceOnUse">
				<stop  offset="0" style="stop-color:#00B1E7"/>
				<stop  offset="0.427" style="stop-color:#0098CD"/>
				<stop  offset="0.5244" style="stop-color:#008DBE"/>
				<stop  offset="0.8403" style="stop-color:#006C91"/>
				<stop  offset="1" style="stop-color:#005F80"/>
			</radialGradient>
			<path id="SVGID_19_" fill="url(#SVGID_11_)" d="M25.7,24.6h-1.6l-2-2.1l-2,2.1h-1.1h-5.7v-7.3h5.7h1l2.1,2.3l2.1-2.3h1.4v0h4.5
				c0,0,2.3-0.3,2.4,2.1c0,2.1-0.8,2.8-3.2,2.8h-1.8v2.3L25.7,24.6 M23.4,21.1l2.3,2.6v-5L23.4,21.1L23.4,21.1 M15.2,23.1h3.9l1.8-2
				l-1.8-2h-3.9v1.1H19v1.6h-3.8V23.1L15.2,23.1 M27.5,20.4h1.9c0.6,0,1-0.3,1-0.7c0-0.4-0.5-0.7-1-0.7h-1.9V20.4L27.5,20.4"/>
		</g>
	</g>
	<g>
		<g>
			
				<radialGradient id="SVGID_12_" cx="8.3391" cy="36.9164" r="71.4497" gradientTransform="matrix(1 0 0 -1 0 28.11)" gradientUnits="userSpaceOnUse">
				<stop  offset="0" style="stop-color:#00B1E7"/>
				<stop  offset="0.427" style="stop-color:#0098CD"/>
				<stop  offset="0.5244" style="stop-color:#008DBE"/>
				<stop  offset="0.8403" style="stop-color:#006C91"/>
				<stop  offset="1" style="stop-color:#005F80"/>
			</radialGradient>
			<path id="SVGID_22_" fill="url(#SVGID_12_)" d="M50.6,24.6h-3.3v-1.7h2.9c0,0,1,0.2,1-0.6c0-0.7-1.6-0.6-1.6-0.6
				s-2.5,0.2-2.5-2.2c0-2.4,2.3-2.2,2.3-2.2h3.5v1.7h-2.8c0,0-1-0.2-1,0.6c0,0.6,1.4,0.6,1.4,0.5s2.8-0.2,2.8,2
				c0,2.3-1.8,2.6-2.5,2.6C50.6,24.7,50.5,24.7,50.6,24.6"/>
		</g>
	</g>
	<g>
		<g>
			
				<radialGradient id="SVGID_14_" cx="8.3391" cy="36.9164" r="71.4497" gradientTransform="matrix(1 0 0 -1 0 28.11)" gradientUnits="userSpaceOnUse">
				<stop  offset="0" style="stop-color:#00B1E7"/>
				<stop  offset="0.427" style="stop-color:#0098CD"/>
				<stop  offset="0.5244" style="stop-color:#008DBE"/>
				<stop  offset="0.8403" style="stop-color:#006C91"/>
				<stop  offset="1" style="stop-color:#005F80"/>
			</radialGradient>
			<polyline id="SVGID_25_" fill="url(#SVGID_14_)" points="40.7,24.7 40.7,17.5 46.5,17.5 46.5,19.1 42.5,19.1 42.5,20.1 
				46.3,20.1 46.3,21.9 42.5,21.9 42.5,23.1 46.5,23.1 46.5,24.7 40.7,24.7 			"/>
		</g>
	</g>
	<g>
		<g>
			
				<radialGradient id="SVGID_15_" cx="8.3391" cy="36.9164" r="71.4497" gradientTransform="matrix(1 0 0 -1 0 28.11)" gradientUnits="userSpaceOnUse">
				<stop  offset="0" style="stop-color:#00B1E7"/>
				<stop  offset="0.427" style="stop-color:#0098CD"/>
				<stop  offset="0.5244" style="stop-color:#008DBE"/>
				<stop  offset="0.8403" style="stop-color:#006C91"/>
				<stop  offset="1" style="stop-color:#005F80"/>
			</radialGradient>
			<path id="SVGID_28_" fill="url(#SVGID_15_)" d="M57,24.6h-3.3v-1.7h2.9c0,0,1,0.2,1-0.6c0-0.7-1.6-0.6-1.6-0.6s-2.5,0.2-2.5-2.2
				c0-2.4,2.3-2.2,2.3-2.2h3.5v1.7h-2.8c0,0-1-0.2-1,0.6c0,0.6,1.4,0.6,1.4,0.5s2.8-0.2,2.8,2c0,2.3-1.8,2.6-2.5,2.6
				C57.1,24.7,57.1,24.7,57,24.6"/>
		</g>
	</g>
</g>
</svg>
