<?xml version="1.0" encoding="utf-8"?>
<!-- Generator: Adobe Illustrator 16.0.0, SVG Export Plug-In . SVG Version: 6.00 Build 0)  -->
<!DOCTYPE svg PUBLIC "-//W3C//DTD SVG 1.1//EN" "http://www.w3.org/Graphics/SVG/1.1/DTD/svg11.dtd">
<svg version="1.1" id="Layer_1" xmlns="http://www.w3.org/2000/svg" xmlns:xlink="http://www.w3.org/1999/xlink" x="0px" y="0px"
	 viewBox="-29.5 777.5 60 30" enable-background="new -29.5 777.5 60 30" xml:space="preserve">
<g>
	<path fill="#009EE3" d="M-24.265,788.652h4.101c2.201,0,3.03,1.115,2.902,2.756c-0.211,2.703-1.846,4.197-4.014,4.197h-1.095
		c-0.297,0-0.497,0.197-0.578,0.73l-0.47,3.1c-0.03,0.201-0.137,0.318-0.295,0.332h-2.571c-0.242,0-0.328-0.184-0.266-0.586
		l1.571-9.939C-24.916,788.844-24.698,788.652-24.265,788.652z"/>
	<path fill="#113984" d="M-6.465,788.469c1.383,0,2.66,0.75,2.485,2.621c-0.207,2.219-1.402,3.453-3.282,3.459h-1.64
		c-0.236,0-0.35,0.191-0.412,0.586l-0.316,2.02c-0.047,0.305-0.204,0.455-0.435,0.455h-1.527c-0.244,0-0.329-0.156-0.274-0.504
		l1.263-8.09c0.062-0.398,0.214-0.547,0.484-0.547H-6.465L-6.465,788.469L-6.465,788.469z M-8.952,792.801h1.244
		c0.778-0.031,1.294-0.568,1.347-1.541c0.033-0.6-0.373-1.029-1.019-1.025l-1.171,0.004L-8.952,792.801L-8.952,792.801z
		 M0.171,796.988c0.14-0.127,0.281-0.191,0.261-0.035l-0.049,0.375c-0.026,0.195,0.051,0.299,0.234,0.299h1.357
		c0.228,0,0.34-0.092,0.396-0.445l0.835-5.248c0.043-0.262-0.021-0.393-0.221-0.393H1.493c-0.135,0-0.201,0.076-0.236,0.281
		l-0.055,0.322c-0.029,0.17-0.106,0.199-0.177,0.029c-0.254-0.6-0.899-0.869-1.805-0.85c-2.093,0.043-3.503,1.631-3.654,3.668
		c-0.116,1.574,1.013,2.813,2.5,2.813C-0.855,797.805-0.372,797.482,0.171,796.988L0.171,796.988z M-0.963,796.184
		c-0.901,0-1.529-0.719-1.398-1.6c0.132-0.881,0.973-1.6,1.874-1.6c0.901,0,1.529,0.719,1.399,1.6
		C0.778,795.465-0.063,796.184-0.963,796.184L-0.963,796.184z M5.862,791.525h-1.37c-0.284,0-0.4,0.207-0.309,0.471l1.707,5.002
		l-1.682,2.381c-0.141,0.197-0.033,0.379,0.166,0.379H5.92c0.231,0,0.344-0.059,0.46-0.225l5.253-7.537
		c0.162-0.232,0.086-0.475-0.179-0.475l-1.463-0.002c-0.25,0-0.352,0.1-0.496,0.309l-2.191,3.18l-0.976-3.186
		C6.27,791.627,6.126,791.525,5.862,791.525z"/>
	<path fill="#009EE3" d="M17.101,788.469c1.383,0,2.66,0.75,2.485,2.621c-0.207,2.219-1.403,3.453-3.282,3.459h-1.64
		c-0.236,0-0.35,0.191-0.412,0.586l-0.317,2.02c-0.047,0.305-0.204,0.455-0.435,0.455h-1.527c-0.244,0-0.329-0.156-0.275-0.504
		l1.263-8.09c0.062-0.398,0.214-0.547,0.483-0.547H17.101L17.101,788.469z M14.614,792.801h1.244
		c0.777-0.031,1.295-0.568,1.346-1.541c0.033-0.6-0.373-1.029-1.019-1.025l-1.17,0.004L14.614,792.801L14.614,792.801z
		 M23.737,796.988c0.14-0.127,0.282-0.191,0.262-0.035l-0.05,0.375c-0.026,0.195,0.052,0.299,0.234,0.299h1.356
		c0.228,0,0.34-0.092,0.396-0.445l0.836-5.248c0.043-0.262-0.021-0.393-0.222-0.393h-1.492c-0.134,0-0.2,0.076-0.234,0.281
		l-0.055,0.322c-0.03,0.17-0.106,0.199-0.178,0.029c-0.253-0.6-0.899-0.869-1.804-0.85c-2.092,0.043-3.503,1.631-3.654,3.668
		c-0.117,1.574,1.012,2.813,2.499,2.813C22.711,797.805,23.193,797.482,23.737,796.988L23.737,796.988z M22.601,796.184
		c-0.9,0-1.528-0.719-1.397-1.6c0.132-0.881,0.973-1.6,1.875-1.6c0.9,0,1.527,0.719,1.397,1.6S23.502,796.184,22.601,796.184
		L22.601,796.184z M28.859,797.637h-1.565c-0.125,0-0.212-0.098-0.193-0.215l1.377-8.717c0.019-0.119,0.137-0.217,0.262-0.217h1.565
		c0.125,0,0.211,0.098,0.192,0.217l-1.377,8.717C29.101,797.539,28.985,797.637,28.859,797.637z"/>
	<path fill="#113984" d="M-26.829,785.232h4.105c1.156,0,2.527,0.037,3.444,0.846c0.613,0.541,0.935,1.402,0.86,2.326
		c-0.251,3.135-2.126,4.889-4.64,4.889h-2.024c-0.344,0-0.573,0.229-0.669,0.848l-0.566,3.592c-0.036,0.234-0.138,0.371-0.322,0.389
		h-2.528c-0.28,0-0.38-0.215-0.307-0.68l1.821-11.527C-27.583,785.451-27.331,785.232-26.829,785.232z"/>
	<path fill="#172C70" d="M-25.695,793.777l0.717-4.535c0.063-0.398,0.281-0.59,0.714-0.59h4.101c0.679,0,1.227,0.107,1.657,0.303
		c-0.413,2.789-2.216,4.338-4.579,4.338h-2.025C-25.376,793.293-25.576,793.43-25.695,793.777z"/>
</g>
</svg>
