<?xml version="1.0" encoding="utf-8"?>
<!-- Generator: Adobe Illustrator 18.1.1, SVG Export Plug-In . SVG Version: 6.00 Build 0)  -->
<!DOCTYPE svg PUBLIC "-//W3C//DTD SVG 1.1//EN" "http://www.w3.org/Graphics/SVG/1.1/DTD/svg11.dtd">
<svg version="1.1" id="Layer_1" xmlns="http://www.w3.org/2000/svg" xmlns:xlink="http://www.w3.org/1999/xlink" x="0px" y="0px"
	 viewBox="0 0 60 30" enable-background="new 0 0 60 30" xml:space="preserve">
<g>
	<g>
		<polygon fill="#005098" points="21.1,23.9 24.2,6.3 29.1,6.3 26,23.9 		"/>
		<path fill="#005098" d="M43.6,6.7c-1-0.4-2.5-0.7-4.4-0.7c-4.8,0-8.2,2.4-8.2,5.9c0,2.6,2.4,4.1,4.3,4.8c1.9,0.8,2.4,1.4,2.4,2.2
			c0,1.2-1.5,1.7-2.9,1.8c-1.9,0-3-0.3-4.6-0.9l-0.6-0.3l-0.7,4c1.1,0.4,3.2,1,5.5,0.9c5.1,0,8.4-2.4,8.5-6.1c0-2-1.3-3.6-4.1-4.8
			c-1.7-0.8-2.7-1.4-2.7-2.2c0-0.7,0.9-1.5,2.8-1.5c1.6,0,2.8,0.4,3.6,0.7l0.4,0.2L43.6,6.7"/>
		<path fill="#005098" d="M56,6.2h-3.8c-1.2,0-2,0.3-2.5,1.5L42.5,24h5.1c0,0,0.8-2.2,1-2.7c0.6,0,5.5,0,6.3,0
			c0.1,0.6,0.6,2.6,0.6,2.7h4.5L56,6.2 M50.1,17.6c0.4-1,1.9-5,1.9-5c0,0.1,0.4-0.9,0.6-1.6l0.3,1.5c0,0,1,4.3,1.2,5.1L50.1,17.6
			L50.1,17.6z"/>
		<path fill="#005098" d="M17.1,6.2l-4.8,12.1l-0.5-2.5c-0.9-2.8-3.6-5.9-6.7-7.5L9.4,24l5.1,0l7.6-17.8L17.1,6.2"/>
		<path fill="#F6A500" d="M7.9,6.2H0.1L0,6.6c6.1,1.4,10.1,5.1,11.8,9.3l-1.7-8.2C9.8,6.5,9,6.3,7.9,6.2"/>
	</g>
</g>
</svg>
