<?xml version="1.0" encoding="utf-8"?>
<!-- Generator: Adobe Illustrator 18.1.1, SVG Export Plug-In . SVG Version: 6.00 Build 0)  -->
<!DOCTYPE svg PUBLIC "-//W3C//DTD SVG 1.1//EN" "http://www.w3.org/Graphics/SVG/1.1/DTD/svg11.dtd">
<svg version="1.1" id="Layer_1" xmlns="http://www.w3.org/2000/svg" xmlns:xlink="http://www.w3.org/1999/xlink" x="0px" y="0px"
	 viewBox="0 0 60 30" enable-background="new 0 0 60 30" xml:space="preserve">
<g>
	<path fill="#FF9100" d="M0.2,14.6L3.6,2.8h4.7c1.9,0,3.4,0.4,4.6,1.5s1.5,2.2,1.2,3.6l-0.5,1.8c-0.5,1.6-1.4,2.8-2.7,3.6
		c-1.4,0.8-3,1.2-5.1,1.2H0.2z M5.9,4.4L3.4,13h2.7c1.2,0,2.2-0.3,3-0.9c0.8-0.6,1.3-1.4,1.6-2.4l0.5-1.8c0.3-1,0.1-1.9-0.5-2.5
		c-0.7-0.6-1.6-1-3-1C7.8,4.4,5.9,4.4,5.9,4.4z"/>
	<path fill="#FF9100" d="M17.5,14.6h-2.8l2.5-8.7H20L17.5,14.6z M20.6,3.7h-2.8L18.3,2h2.8L20.6,3.7z"/>
	<path fill="#FF9100" d="M28.5,7.6l-1.3,0c-0.5,0-0.9,0.1-1.2,0.2c-0.4,0.2-0.7,0.4-1,0.7l-1.7,6h-2.8L23,5.9h2.5L25.4,7
		c0.4-0.4,0.9-0.7,1.4-1c0.5-0.2,1.1-0.3,1.7-0.3c0.2,0,0.4,0,0.6,0c0.2,0,0.3,0,0.4,0.1L28.5,7.6z"/>
	<path fill="#FF9100" d="M33.5,14.7c-1.6,0-2.8-0.4-3.7-1.2c-0.8-0.8-1.1-1.8-0.8-3.1l0.1-0.3c0.3-1.3,1-2.4,2.2-3.2
		c1.2-0.8,2.5-1.2,4-1.2c1.5,0,2.6,0.4,3.4,1.1s0.9,1.7,0.6,2.9L39,10.8h-7.3c-0.1,0.7,0,1.3,0.4,1.7c0.4,0.4,1,0.7,1.8,0.6
		c0.7,0,1.3-0.1,1.8-0.2c0.5-0.1,1.1-0.3,1.6-0.6l0.6,1.3c-0.5,0.3-1.1,0.5-1.9,0.7C35.4,14.7,34.4,14.7,33.5,14.7L33.5,14.7z
		 M34.9,7.3c-0.6,0-1.1,0.2-1.6,0.6c-0.5,0.4-0.9,0.9-1.1,1.5l0,0h4.4l0-0.2c0.1-0.6,0.1-1-0.2-1.4S35.6,7.3,34.9,7.3L34.9,7.3z"/>
	<path fill="#FF9100" d="M45.6,13.2c0.6,0,1.1-0.1,1.6-0.4s0.8-0.6,0.9-1.1h2.5h0c-0.2,0.9-0.8,1.6-1.8,2.1
		c-1.1,0.6-2.2,0.9-3.6,0.9c-1.7,0-2.9-0.4-3.7-1.3c-0.8-0.8-1-1.9-0.7-3.1l0.1-0.3c0.3-1.3,1-2.4,2.1-3.2c1.1-0.8,2.5-1.2,4.3-1.2
		c1.4,0,2.4,0.3,3.2,0.9s1,1.4,0.8,2.3l0,0h-2.5c0.1-0.5,0-0.9-0.3-1.2c-0.3-0.3-0.8-0.5-1.5-0.5c-0.9,0-1.6,0.3-2.2,0.8
		c-0.5,0.5-0.9,1.2-1.1,2l-0.1,0.3c-0.2,0.8-0.2,1.5,0,2C43.8,12.9,44.6,13.1,45.6,13.2L45.6,13.2z"/>
	<path fill="#FF9100" d="M58.6,3.7l-0.6,2.1H60l-0.4,1.5h-2.1l-1.4,4.8c-0.1,0.4-0.1,0.7,0,0.8c0.2,0.1,0.4,0.1,0.8,0.2
		c0.2,0,0.4,0,0.6,0c0.2,0,0.4,0,0.6-0.1L58,14.5c-0.3,0.1-0.6,0.2-1,0.2c-0.4,0.1-0.8,0.1-1.2,0.1c-0.9,0-1.6-0.2-2.1-0.6
		c-0.5-0.4-0.6-1.1-0.3-2l1.4-4.8H53l0.4-1.5h1.8l0.6-2.1L58.6,3.7L58.6,3.7z"/>
	<path fill="#FF9100" d="M0,26l2.6-9h3.7c1.5,0,2.6,0.4,3.6,1.1c0.9,0.7,1.2,1.7,0.8,2.8l-0.4,1.4c-0.4,1.2-1,2.2-2.1,2.8
		c-1,0.6-2.3,1-3.9,1L0,26L0,26z M4.4,18.1l-1.9,6.6h2.1c0.9,0,1.7-0.2,2.3-0.7c0.6-0.5,1-1.1,1.3-1.9l0.4-1.4
		c0.2-0.8,0.1-1.4-0.4-1.9c-0.5-0.5-1.3-0.7-2.3-0.7H4.4z"/>
	<path fill="#FF9100" d="M15.1,26.1c-1.2,0-2.2-0.3-2.8-0.9c-0.6-0.6-0.9-1.4-0.6-2.4l0.1-0.2c0.2-1,0.8-1.8,1.7-2.5
		c0.9-0.6,1.9-0.9,3.1-0.9c1.2,0,2,0.3,2.6,0.8c0.5,0.6,0.8,1.3,0.4,2.2l-0.2,0.9h-5.5c-0.1,0.6,0,1,0.4,1.3
		c0.4,0.4,0.8,0.6,1.4,0.6c0.5,0,1-0.1,1.4-0.2c0.4-0.1,0.8-0.2,1.2-0.4l0.4,1c-0.4,0.2-0.9,0.4-1.5,0.6
		C16.5,26,15.9,26.1,15.1,26.1L15.1,26.1z M16.2,20.3c-0.5,0-0.9,0.1-1.3,0.4c-0.4,0.3-0.7,0.7-0.8,1.1h0h3.4l0-0.2
		c0.1-0.4,0-0.8-0.2-1.1C17.1,20.4,16.7,20.4,16.2,20.3L16.2,20.3z"/>
	<path fill="#FF9100" d="M29.1,23c-0.3,1-0.8,1.8-1.5,2.4s-1.6,0.8-2.7,0.8c-0.5,0-0.9-0.1-1.3-0.2c-0.4-0.1-0.7-0.3-1-0.6l-0.9,3.2
		h-2.1l2.7-9.3h1.9L24,20c0.3-0.2,0.7-0.4,1.1-0.6s0.9-0.2,1.3-0.2c1,0,1.8,0.4,2.4,1.1c0.6,0.7,0.6,1.5,0.4,2.6L29.1,23z M27,22.8
		c0.2-0.7,0.2-1.3,0-1.8c-0.2-0.5-0.7-0.7-1.4-0.7c-0.4,0-0.7,0.1-1,0.2s-0.6,0.3-0.8,0.6l-0.9,3.1c0.1,0.1,0.4,0.4,0.6,0.5
		s0.6,0.1,1,0.2c0.6,0,1.1-0.2,1.6-0.5c0.4-0.3,0.7-0.8,0.9-1.4L27,22.8z"/>
	<path fill="#FF9100" d="M30.6,22.6c0.2-1,0.8-1.9,1.7-2.5c0.9-0.6,2-0.9,3.3-0.9c1.3,0,2.2,0.3,2.8,1c0.6,0.7,0.8,1.5,0.6,2.5
		l0,0.1c-0.2,1-0.8,1.9-1.7,2.5c-0.9,0.6-2,0.9-3.3,0.9c-1.3,0-2.2-0.3-2.8-1c-0.6-0.6-0.8-1.5-0.6-2.5L30.6,22.6z M32.7,22.7
		c-0.2,0.7-0.1,1.3,0.2,1.6c0.2,0.4,0.6,0.6,1.4,0.6c0.7,0,1.2-0.2,1.6-0.6c0.4-0.4,0.7-0.9,0.9-1.6l0-0.1c0.1-0.7,0.1-1.2-0.1-1.6
		c-0.2-0.4-0.7-0.6-1.4-0.6c-0.7,0-1.2,0.2-1.6,0.6c-0.4,0.4-0.7,0.9-0.9,1.6L32.7,22.7z"/>
	<path fill="#FF9100" d="M45.4,24.2c0.1-0.2,0-0.4-0.2-0.6c-0.2-0.2-0.7-0.3-1.4-0.4c-1-0.2-1.8-0.4-2.3-0.7
		c-0.5-0.3-0.7-0.7-0.5-1.3c0.1-0.6,0.6-1.1,1.3-1.5c0.7-0.4,1.6-0.6,2.7-0.6c1.1,0,1.9,0.1,2.4,0.6c0.6,0.4,0.8,1,0.6,1.5l0,0h-2.1
		c0.1-0.3,0-0.5-0.2-0.7c-0.2-0.2-0.6-0.3-1-0.3c-0.4,0-0.8,0.1-1.1,0.3c-0.3,0.2-0.5,0.4-0.5,0.6c-0.1,0.3,0,0.4,0.2,0.6
		c0.2,0.1,0.6,0.3,1.4,0.4c1.1,0.1,1.8,0.4,2.4,0.7c0.5,0.3,0.6,0.7,0.6,1.3c-0.1,0.6-0.6,1.1-1.3,1.5c-0.8,0.4-1.7,0.6-2.8,0.6
		c-1.1,0-2-0.2-2.6-0.7c-0.6-0.5-0.8-1-0.7-1.5l0,0h2c-0.1,0.4,0,0.7,0.4,0.9c0.3,0.1,0.6,0.3,1.2,0.3c0.5,0,0.9-0.1,1.2-0.2
		C45.2,24.6,45.3,24.4,45.4,24.2L45.4,24.2z"/>
	<path fill="#FF9100" d="M51.1,26H49l1.9-6.7H53L51.1,26z M53.5,17.6h-2.1l0.4-1.3h2.1L53.5,17.6z"/>
	<path fill="#FF9100" d="M58.5,17.6L58,19.3h1.6l-0.3,1.1h-1.6l-1.1,3.7c-0.1,0.3-0.1,0.6,0,0.6c0.1,0,0.3,0.1,0.6,0.2
		c0.1,0,0.3,0,0.5,0c0.2,0,0.3,0,0.4-0.1l-0.1,1.1c-0.2,0.1-0.5,0.1-0.8,0.2c-0.3,0-0.6,0.1-0.9,0.1c-0.7,0-1.3-0.2-1.6-0.5
		c-0.4-0.3-0.4-0.8-0.2-1.5l1.1-3.7h-1.4l0.3-1.1h1.4l0.5-1.6L58.5,17.6L58.5,17.6z"/>
</g>
</svg>
