<?xml version="1.0" encoding="utf-8"?>
<!-- Generator: Adobe Illustrator 18.1.1, SVG Export Plug-In . SVG Version: 6.00 Build 0)  -->
<!DOCTYPE svg PUBLIC "-//W3C//DTD SVG 1.1//EN" "http://www.w3.org/Graphics/SVG/1.1/DTD/svg11.dtd">
<svg version="1.1" id="Layer_1" xmlns="http://www.w3.org/2000/svg" xmlns:xlink="http://www.w3.org/1999/xlink" x="0px" y="0px"
	 viewBox="0 0 60 30" enable-background="new 0 0 60 30" xml:space="preserve">
<g>
	<path fill="#FAB31E" d="M29.9,25.2c2.5,2.2,5.8,3.6,9.3,3.6c7.7,0,13.9-6.2,13.9-13.9C53.1,7.3,46.8,1,39.1,1
		c-3.6,0-6.9,1.4-9.3,3.6C27,7.2,25.2,10.9,25.2,15C25.3,19,27.1,22.7,29.9,25.2L29.9,25.2z"/>
	<path fill="#FAB31E" d="M51.3,22.7c0-0.2,0.2-0.4,0.5-0.4c0.2,0,0.5,0.2,0.5,0.4c0,0.2-0.2,0.5-0.4,0.5
		C51.5,23.2,51.3,22.9,51.3,22.7L51.3,22.7z M51.7,23c0.2,0,0.3-0.2,0.3-0.4c0-0.2-0.2-0.3-0.3-0.3c-0.2,0-0.4,0.1-0.4,0.3
		C51.4,22.9,51.5,23.1,51.7,23L51.7,23z M51.6,22.9L51.6,22.9l-0.1-0.4h0.2c0,0,0.2,0,0.2,0c0,0,0,0,0,0.1c0,0.1,0,0.1-0.1,0.1
		l0.1,0.2h-0.1l-0.1-0.2h-0.1L51.6,22.9L51.6,22.9z M51.6,22.6L51.6,22.6C51.7,22.6,51.7,22.6,51.6,22.6
		C51.7,22.6,51.7,22.6,51.6,22.6C51.7,22.6,51.7,22.6,51.6,22.6C51.7,22.6,51.7,22.6,51.6,22.6L51.6,22.6L51.6,22.6L51.6,22.6z"/>
	<path fill="#E40520" d="M34.4,13.4c-0.1-0.5-0.1-1-0.2-1.5h-8.5c0.1-0.5,0.2-1,0.4-1.5h7.7c-0.2-0.5-0.4-1-0.6-1.5h-6.6
		c0.2-0.5,0.5-1,0.8-1.5h4.9c-0.3-0.5-0.7-1-1.1-1.5h-2.8c0.4-0.5,0.9-1,1.4-1.5C27.4,2.4,24.1,1,20.5,1C12.8,1,6.6,7.3,6.6,14.9
		c0,7.7,6.3,13.8,13.8,13.9c3.6,0,6.9-1.4,9.3-3.6l0,0c0.5-0.5,1-1,1.4-1.5h-2.8c-0.4-0.5-0.7-1-1.1-1.5h4.9c0.3-0.5,0.6-1,0.8-1.5
		h-6.6c-0.2-0.5-0.4-1-0.6-1.5h7.7c0.2-0.5,0.3-1,0.4-1.5c0.1-0.5,0.2-1,0.2-1.5c0.1-0.5,0.1-1,0.1-1.5
		C34.4,14.4,34.5,13.9,34.4,13.4L34.4,13.4z"/>
	<path fill="#FFFFFF" d="M51.3,18.1c0-0.2,0.2-0.4,0.5-0.4c0.2,0,0.5,0.2,0.5,0.4c0,0.2-0.2,0.5-0.4,0.5
		C51.5,18.6,51.3,18.3,51.3,18.1L51.3,18.1z M51.7,18.5c0.2,0,0.3-0.2,0.3-0.4c0-0.2-0.2-0.3-0.3-0.3c-0.2,0-0.4,0.1-0.4,0.3
		C51.4,18.3,51.5,18.5,51.7,18.5L51.7,18.5z M51.6,18.4L51.6,18.4L51.6,18h0.2c0,0,0.2,0,0.2,0c0,0,0,0,0,0.1c0,0.1,0,0.1-0.1,0.1
		l0.1,0.2h-0.1l-0.1-0.2h-0.1L51.6,18.4L51.6,18.4z M51.6,18.1L51.6,18.1C51.7,18.1,51.7,18.1,51.6,18.1
		C51.7,18.1,51.7,18.1,51.6,18.1C51.7,18.1,51.7,18,51.6,18.1C51.7,18,51.7,18,51.6,18.1L51.6,18.1L51.6,18.1L51.6,18.1z"/>
	<path fill="#06326E" d="M25.1,18.9c-0.5,0.1-0.8,0.2-1.1,0.2c-0.7,0-1.1-0.4-1.1-1.3c0-0.2,0-0.3,0.1-0.5l0.1-0.5l0.1-0.5l0.7-3.9
		h1.4L25,13.3h0.9l-0.2,1.4h-0.9L24.4,17c0,0.1,0,0.2,0,0.2c0,0.3,0.2,0.5,0.5,0.5c0.2,0,0.3,0,0.5-0.1L25.1,18.9L25.1,18.9z"/>
	<path fill="#06326E" d="M29.8,18.9c-0.5,0.2-1,0.2-1.6,0.3c-1.6,0-2.6-0.9-2.6-2.6c0-2,1.1-3.4,2.6-3.4c1.2,0,2,0.8,2,2
		c0,0.4-0.1,0.8-0.2,1.4h-3c0,0.2,0,0.2,0,0.2c0,0.6,0.5,0.9,1.3,1c0.5,0,1-0.1,1.6-0.4L29.8,18.9L29.8,18.9z M28.9,15.5
		c0-0.1,0-0.2,0-0.3c0-0.5-0.3-0.7-0.7-0.7c-0.5,0-0.8,0.4-1,1L28.9,15.5L28.9,15.5z"/>
	<polygon fill="#06326E" points="13.6,19 12.2,19 12.9,13.6 11.1,19 10,19 10,13.6 9,19 7.4,19 8.7,11.9 10.9,11.9 10.9,16.3 
		12.3,11.9 14.8,11.9 	"/>
	<path fill="#06326E" d="M17.2,16.5c-0.2,0-0.2,0-0.3,0c-0.8,0-1.3,0.3-1.3,0.9c0,0.3,0.2,0.6,0.5,0.6
		C16.9,17.9,17.2,17.2,17.2,16.5L17.2,16.5z M18.4,19h-1.3l0-0.6c-0.3,0.5-0.8,0.7-1.6,0.7c-0.7,0-1.3-0.7-1.3-1.6
		c0-0.3,0.1-0.5,0.1-0.7c0.2-0.9,1.1-1.4,2.5-1.5c0.2,0,0.5,0,0.6,0c0.1-0.2,0.1-0.3,0.1-0.4c0-0.4-0.3-0.5-1-0.5
		c-0.4,0-0.9,0.1-1.3,0.2l-0.2,0.1H15l0.2-1.3c0.7-0.2,1.2-0.3,1.7-0.3c1.3,0,2,0.6,2,1.7c0,0.3,0,0.5-0.1,1.1L18.6,18l-0.1,0.4
		l-0.1,0.3v0.2L18.4,19L18.4,19z"/>
	<path fill="#06326E" d="M37.1,13.3c0.4,0,0.8,0.2,1.4,0.4l0.2-1.6c-0.1-0.1-0.2-0.1-0.4-0.1l-0.6-0.1c-0.2-0.1-0.4-0.1-0.7-0.1
		c-0.7,0-1.2,0-1.6,0.3c-0.2,0.1-0.5,0.4-0.9,0.7l-0.2-0.1l-1.6,1.1l0.1-0.6h-1.6L30.4,19h1.5l0.5-3.1c0,0,0.2-0.4,0.3-0.6
		C33,15,33.3,15,33.6,15c0.1,0,0.2,0,0.2,0c0,0.3-0.1,0.7-0.1,1.1c0,1.9,1.1,3,2.7,3.1c0.4,0,0.8-0.1,1.3-0.2l0.3-1.6
		c-0.5,0.2-0.9,0.4-1.3,0.3c-0.9,0-1.4-0.6-1.4-1.7C35.2,14.4,35.9,13.3,37.1,13.3L37.1,13.3z"/>
	<path fill="#06326E" d="M49.8,11.9l-0.3,2c-0.4-0.5-0.8-0.8-1.4-0.8c-0.8,0-1.5,0.4-2,1.3l0,0l-1-0.6l0.1-0.6h-1.6L42.7,19h1.5
		l0.5-3.1c0,0,0.4-0.4,0.5-0.6c0.2-0.3,0.5-0.4,0.7-0.4c-0.2,0.5-0.3,1.1-0.3,1.7c0,1.4,0.8,2.4,1.9,2.4c0.5,0,1-0.2,1.4-0.7
		l-0.1,0.6h1.4l1.1-7.1L49.8,11.9L49.8,11.9z M48,17.7c-0.5,0-0.8-0.4-0.8-1.1c0-1.1,0.5-1.9,1.2-1.9c0.5,0,0.8,0.5,0.8,1.1
		C49.2,16.9,48.7,17.7,48,17.7L48,17.7z"/>
	<path fill="#06326E" d="M41,16.5c-0.2,0-0.2,0-0.3,0c-0.8,0-1.3,0.3-1.3,0.9c0,0.3,0.2,0.6,0.5,0.6C40.7,17.9,41,17.2,41,16.5
		L41,16.5z M42.2,19h-1.3l0-0.6c-0.3,0.5-0.8,0.7-1.6,0.7c-0.7,0-1.4-0.6-1.4-1.6c0-1.4,1-2.2,2.7-2.2c0.2,0,0.5,0,0.6,0
		c0.1-0.2,0.1-0.3,0.1-0.4c0-0.4-0.3-0.5-1-0.5c-0.4,0-0.9,0.1-1.3,0.2l-0.2,0.1h-0.1l0.2-1.3c0.7-0.2,1.2-0.3,1.7-0.3
		c1.3,0,2,0.6,2,1.7c0,0.3,0,0.5-0.1,1.1l-0.3,2l-0.1,0.3l-0.1,0.3l0,0.2L42.2,19L42.2,19z"/>
	<path fill="#06326E" d="M21.6,14.5c0.3,0,0.8,0,1.1,0.1l0.2-1.3c-0.4-0.1-1-0.1-1.4-0.1c-1.7,0-2.2,0.9-2.2,2
		c0,0.6,0.3,1.3,1.1,1.6c0.6,0.3,0.8,0.3,0.8,0.6c0,0.4-0.3,0.6-0.9,0.6c-0.4,0-0.8-0.1-1.3-0.2L18.7,19h0L19,19
		c0.1,0,0.2,0,0.3,0.1c0.4,0,0.6,0,0.9,0.1c1.7,0,2.4-0.6,2.4-1.9c0-0.8-0.4-1.3-1.1-1.6c-0.6-0.3-0.7-0.3-0.7-0.6
		C20.8,14.7,21.1,14.6,21.6,14.5L21.6,14.5z"/>
	<path fill="#FFFFFF" d="M39.1,11.7l-0.2,1.5c-0.5-0.3-0.9-0.4-1.3-0.4c-1.1,0-1.9,1.1-1.9,2.6c0,1.1,0.5,1.7,1.4,1.7
		c0.4,0,0.8-0.1,1.3-0.4L38,18.5c-0.5,0.1-0.9,0.2-1.3,0.2c-1.6,0-2.6-1.1-2.6-3c0-2.5,1.4-4.3,3.4-4.3c0.3,0,0.5,0,0.6,0.1l0.6,0.2
		C38.9,11.7,38.9,11.7,39.1,11.7L39.1,11.7z"/>
	<path fill="#FFFFFF" d="M34.2,12.8c-0.1,0-0.1,0-0.2,0c-0.5,0-0.8,0.2-1.2,0.9l0.1-0.9h-1.4l-0.9,5.8h1.5c0.5-3.5,0.7-4.1,1.4-4.1
		c0,0,0,0,0.2,0c0.1-0.7,0.3-1.2,0.6-1.7L34.2,12.8L34.2,12.8z"/>
	<path fill="#FFFFFF" d="M25.5,18.5c-0.4,0.1-0.7,0.2-1.1,0.2c-0.8,0-1.2-0.4-1.2-1.3c0-0.2,0-0.3,0.1-0.5l0.1-0.6l0.1-0.4l0.7-3.9
		h1.5l-0.2,0.8h0.8L26,14.2h-0.8l-0.4,2.4c0,0.1,0,0.2,0,0.2c0,0.3,0.2,0.5,0.5,0.4c0.2,0,0.3,0,0.4-0.1L25.5,18.5L25.5,18.5z"/>
	<path fill="#FFFFFF" d="M19.7,14.7c0,0.8,0.3,1.3,1.1,1.6c0.6,0.3,0.8,0.3,0.8,0.7c0,0.4-0.3,0.5-0.9,0.5c-0.4,0-0.8-0.1-1.3-0.2
		l-0.2,1.3h0.1l0.3,0.1c0.1,0,0.2,0,0.3,0.1c0.4,0,0.6,0,0.8,0.1c1.6,0,2.3-0.6,2.3-1.9c0-0.8-0.3-1.3-1.1-1.6
		c-0.6-0.3-0.7-0.4-0.7-0.6c0-0.3,0.2-0.5,0.7-0.5c0.3,0,0.8,0,1.1,0.1l0.2-1.3c-0.4-0.1-1-0.1-1.3-0.1
		C20.3,12.7,19.7,13.6,19.7,14.7L19.7,14.7z"/>
	<path fill="#FFFFFF" d="M50.6,18.6h-1.4l0.1-0.6c-0.4,0.4-0.8,0.6-1.4,0.6c-1.1,0-1.8-0.9-1.8-2.4c0-1.9,1.1-3.5,2.5-3.5
		c0.6,0,1.1,0.3,1.4,0.8l0.3-2h1.5L50.6,18.6L50.6,18.6z M48.4,17.2c0.7,0,1.2-0.8,1.2-1.9c0-0.7-0.3-1.1-0.8-1.1
		c-0.7,0-1.2,0.8-1.2,1.9C47.6,16.8,47.9,17.2,48.4,17.2L48.4,17.2z"/>
	<path fill="#FFFFFF" d="M30.1,18.4c-0.5,0.2-1,0.2-1.6,0.3c-1.7,0-2.6-0.9-2.6-2.6c0-2,1.1-3.4,2.6-3.4c1.2,0,2,0.8,2,2.1
		c0,0.4-0.1,0.8-0.2,1.4h-3c0,0.1,0,0.1,0,0.2c0,0.6,0.5,0.9,1.3,1c0.5,0,1-0.1,1.6-0.4L30.1,18.4L30.1,18.4z M29.3,15
		c0-0.1,0-0.2,0-0.3c0-0.5-0.2-0.7-0.7-0.7c-0.5,0-0.8,0.4-1,1L29.3,15L29.3,15z"/>
	<polygon fill="#FFFFFF" points="14,18.6 12.5,18.6 13.4,13.1 11.4,18.6 10.4,18.6 10.3,13.1 9.3,18.6 7.9,18.6 9.2,11.6 11.2,11.6 
		11.4,15.8 12.8,11.6 15.1,11.6 	"/>
	<path fill="#FFFFFF" d="M17.7,16c-0.2,0-0.2,0-0.4,0c-0.8,0-1.3,0.3-1.3,0.9c0,0.3,0.2,0.6,0.5,0.6C17.3,17.4,17.7,16.9,17.7,16
		L17.7,16z M18.8,18.6h-1.3l0-0.6c-0.4,0.5-0.9,0.7-1.6,0.7c-0.8,0-1.4-0.6-1.4-1.6c0-1.4,1-2.2,2.6-2.2c0.2,0,0.3,0,0.6,0
		c0.1-0.2,0.1-0.2,0.1-0.4c0-0.4-0.2-0.5-1-0.5c-0.4,0-0.9,0.1-1.3,0.2l-0.2,0.1l-0.2,0l0.2-1.3c0.8-0.2,1.3-0.3,1.8-0.3
		c1.3,0,2,0.6,2,1.7c0,0.3,0,0.5-0.1,1.1l-0.3,2l-0.1,0.4l0,0.3l0,0.2L18.8,18.6L18.8,18.6z"/>
	<path fill="#FFFFFF" d="M41.5,16c-0.2,0-0.2,0-0.4,0c-0.8,0-1.3,0.3-1.3,0.9c0,0.3,0.2,0.6,0.5,0.6C41,17.4,41.4,16.9,41.5,16
		L41.5,16z M42.6,18.6h-1.3l0-0.6c-0.4,0.5-0.9,0.7-1.6,0.7c-0.8,0-1.4-0.6-1.4-1.6c0-1.4,1-2.2,2.7-2.2c0.2,0,0.3,0,0.6,0
		c0.1-0.2,0.1-0.2,0.1-0.4c0-0.4-0.2-0.5-1-0.5c-0.4,0-0.9,0.1-1.3,0.2l-0.2,0.1l-0.1,0l0.2-1.3c0.8-0.2,1.3-0.3,1.8-0.3
		c1.3,0,2,0.6,2,1.7c0,0.3,0,0.5-0.1,1.1l-0.3,2l-0.1,0.4l-0.1,0.3l0,0.2L42.6,18.6L42.6,18.6z"/>
	<path fill="#FFFFFF" d="M46.7,12.8c0,0-0.1,0-0.1,0c-0.5,0-0.8,0.2-1.3,0.9l0.1-0.9H44l-0.9,5.8h1.5c0.5-3.5,0.7-4.1,1.4-4.1
		c0.1,0,0,0,0.2,0c0.1-0.7,0.3-1.2,0.6-1.7L46.7,12.8L46.7,12.8z"/>
</g>
</svg>
